Coordinates
version=1
nRows=27
nColumns=12
inDegrees=yes

Units are S.I. units (second, meters, Newtons, ...)
Angles are in degrees

endheader
time	SC_y	SC_z	SC_x	AC_y	AC_z	AC_x	GH_y	GH_z	GH_yy	EL_x	PS_y
       0.0              -35.31           32.4          65.49          58.13          1.859          17.44          127.3           76.6         -169.8          11.08          13.41
   0.04186              -35.31          32.39          65.49          58.13          1.856          17.44          127.3          76.59         -169.7          11.08          13.42
   0.08372              -35.31          32.39          65.49          58.12          1.853          17.44          127.3          76.59         -169.7          11.08          13.43
    0.1256              -35.31          32.38          65.49          58.12          1.851          17.44          127.3          76.58         -169.6          11.08          13.45
    0.1674              -35.31          32.37          65.49          58.12          1.847          17.43          127.3          76.57         -169.5          11.08          13.46
    0.2093              -35.31          32.37          65.49          58.12          1.844          17.43          127.2          76.57         -169.5          11.08          13.48
    0.2512              -35.32          32.36          65.49          58.11          1.841          17.43          127.2          76.56         -169.4          11.08          13.49
     0.293              -35.32          32.35          65.49          58.11          1.837          17.43          127.2          76.55         -169.3          11.09          13.51
    0.3349              -35.32          32.34           65.5           58.1          1.833          17.42          127.2          76.54         -169.2          11.09          13.53
    0.3767              -35.33          32.33           65.5           58.1          1.829          17.42          127.2          76.53         -169.2          11.09          13.55
    0.4186              -35.33          32.33           65.5           58.1          1.824          17.41          127.2          76.52         -169.1          11.09          13.57
    0.4605              -35.33          32.32           65.5          58.09          1.819          17.41          127.1          76.51         -169.0          11.09           13.6
    0.5023              -35.33           32.3           65.5          58.09          1.814          17.41          127.1           76.5         -168.9          11.09          13.62
    0.5442              -35.34          32.29           65.5          58.08          1.808           17.4          127.1          76.48         -168.8           11.1          13.65
     0.586              -35.34          32.28          65.51          58.07          1.802          17.39          127.0          76.47         -168.6           11.1          13.68
    0.6279              -35.35          32.27          65.51          58.07          1.795          17.39          127.0          76.45         -168.5           11.1          13.71
    0.6697              -35.35          32.25          65.51          58.06          1.788          17.38          127.0          76.43         -168.3           11.1          13.75
    0.7116              -35.36          32.23          65.51          58.05           1.78          17.38          126.9          76.42         -168.2          11.11          13.78
    0.7535              -35.36          32.22          65.52          58.05          1.771          17.37          126.9          76.39         -168.0          11.11          13.83
    0.7953              -35.37           32.2          65.52          58.04          1.762          17.36          126.9          76.37         -167.8          11.11          13.87
    0.8372              -35.38          32.18          65.52          58.03          1.751          17.35          126.8          76.35         -167.6          11.12          13.92
     0.879              -35.38          32.15          65.53          58.02          1.739          17.34          126.8          76.32         -167.4          11.12          13.98
    0.9209              -35.39          32.13          65.53           58.0          1.727          17.33          126.7          76.29         -167.1          11.13          14.04
    0.9628               -35.4           32.1          65.54          57.99          1.713          17.32          126.6          76.26         -166.8          11.13          14.11
     1.005              -35.41          32.06          65.54          57.97          1.697           17.3          126.5          76.22         -166.5          11.14          14.18
     1.046              -35.42          32.03          65.55          57.96          1.679          17.29          126.5          76.18         -166.2          11.14          14.27
     1.088              -35.44          31.99          65.55          57.94           1.66          17.27          126.4          76.13         -165.8          11.15          14.36
